<?xml version="1.0" encoding="UTF-8" standalone="no"?>
<svg
   viewBox="201 40 160 160"
   width="160"
   height="160"
   version="1.1"
   id="svg7"
   sodipodi:docname="Ammonite_shell_with_double_stripe.svg"
   inkscape:version="1.4.1 (93de688d07, 2025-03-30)"
   xmlns:inkscape="http://www.inkscape.org/namespaces/inkscape"
   xmlns:sodipodi="http://sodipodi.sourceforge.net/DTD/sodipodi-0.dtd"
   xmlns="http://www.w3.org/2000/svg"
   xmlns:svg="http://www.w3.org/2000/svg">
  <defs
     id="defs7" />
  <sodipodi:namedview
     id="namedview7"
     pagecolor="#ffffff"
     bordercolor="#000000"
     borderopacity="0.25"
     inkscape:showpageshadow="2"
     inkscape:pageopacity="0.0"
     inkscape:pagecheckerboard="0"
     inkscape:deskcolor="#d1d1d1"
     inkscape:zoom="3.58125"
     inkscape:cx="80"
     inkscape:cy="80"
     inkscape:window-width="1440"
     inkscape:window-height="900"
     inkscape:window-x="0"
     inkscape:window-y="0"
     inkscape:window-maximized="1"
     inkscape:current-layer="svg7" />
  <path
     d="m 350.27996,171.17995 c 3.2,3.7 3.1,5.8 3.1,5.8 0.2,0.7 0,2.8 -1.6,3.4 -2.6,0.8 -4.6,-1.6 -4.6,-1.6 0,0 -5.5,-4.8 -17.1,-7.4 -11.7,-2.7 -29.2,-4.6 -32.2,-5 -4.3,-0.6 -7.4,-2.6 -7.4,-2.6 0,0 -13.9,25.2 -42.9,16.8 -34.3,-9.9 -42.8,-44.6 -40.5,-62.4 2.2,-16.8 12,-48.599996 56,-59.599996 43.8,-11 80.2,21.6 88.8,51.699996 9.6,34 -1.7,61 -1.7,61"
     fill="#fab41d"
     id="path1" />
  <path
     d="m 350.27996,171.17995 c 3.2,3.7 3.1,5.8 3.1,5.8 0.2,0.7 0,2.8 -1.6,3.4 -2.6,0.8 -4.6,-1.6 -4.6,-1.6 0,0 -5.5,-4.8 -17.1,-7.4 -11.7,-2.7 -29.2,-4.6 -32.2,-5 -4.3,-0.6 -7.4,-2.6 -7.4,-2.6 0,0 -13.9,25.2 -42.9,16.8 -34.3,-9.9 -42.8,-44.6 -40.5,-62.4 2.2,-16.8 12,-48.599996 56,-59.599996 43.8,-11 80.2,21.6 88.8,51.699996 9.6,34 -1.7,61 -1.7,61 z"
     fill="none"
     stroke="#161315"
     stroke-width="0.7"
     id="path2" />
  <path
     d="m 349.97996,178.87995 -1.2,-2.3 c -0.3,-0.4 -6.2,-11.5 -25.2,-14.6 -19.5,-3.2 -26.1,-5.3 -30.6,-6.8 l -1.5,-0.5 -2.7,-1 c -3.3,-1.2 -8.6,-2.1 -9,-1.2 -0.2,0.5 -0.5,1 -0.1,1.6 2,4 4.8,6.2 11,9.6 l -1.2,2 c -6.2,-2.7 -11.5,-7.4 -12.6,-11.2 -0.4,-1.4 -0.3,-2.6 0.5,-3.7 2,-3 8.2,-1 13.7,1 l 2.4,0.8 c 4.4,1.5 11.2,3.8 30.4,7.2 20.3,3.5 24.3,14.5 24.9,15.8 l 1.2,3.3"
     fill="#161315"
     id="path3" />
  <path
     d="m 280.37996,151.47995 -2.3,-1.2 c 9,-9.8 9.7,-22.5 1.6,-31.7 a 18,18 0 0 0 -12.7,-5.8 c -4.8,0 -9.1,1.9 -12.3,5.4 a 14,14 0 0 0 -3.7,10.2 12,12 0 0 0 3.8,8.7 10,10 0 0 0 7.6,2.8 9,9 0 0 0 6.6,-3 c 1.5,-1.5 1.7,-2.6 1.8,-4.6 0.1,-1.5 -1,-3 -1.5,-3.3 -0.5,-0.4 -1.5,-0.6 -2,-0.3 -0.6,0.2 -1.5,0.5 -1.6,1.3 l -0.4,1.5 c -1.3,-2 0.2,-4.2 1,-4.5 a 4,4 0 0 1 4,0.3 6.6,6.6 0 0 1 2.5,5.5 c -0.1,2.1 -0.2,3.5 -2.2,5.7 -2,2.2 -4.9,3.5 -8,3.7 -3.5,0.1 -6.7,-1 -9.3,-3.4 a 15,15 0 0 1 -4.6,-10.3 c -0.2,-4.4 1.4,-8.6 4.3,-11.9 3.7,-3.9 8.6,-6.3 14,-6.3 a 20,20 0 0 1 14.6,6.5 c 9,10 8.7,24 -1.2,34.7"
     fill="#161315"
     id="path4" />
  <path
     d="m 324.47996,157.17995 -3.3,-0.6 a 60.5,60.5 0 0 0 2.9,-27.9 c -2.9,-23 -24,-48.199996 -51.4,-48.199996 a 48.7,48.7 0 0 0 -50.4,47.999996 c 0,14.1 5,26.2 13.8,34.1 a 39.7,39.7 0 0 0 32.1,9 29,29 0 0 0 17.9,-8.9 c 1,-1 0.4,-0.5 1,-0.5 l 0.9,1 h 0.2 c -0.2,0.1 -0.6,0.4 -1,0.9 -2.6,2.6 -8,8.4 -18.7,9.7 a 41.9,41.9 0 0 1 -33.9,-9.5 c -9.3,-8.3 -14.5,-21 -14.5,-35.7 a 49,49 0 0 1 15.5,-35.999996 c 9.8,-9.2 23,-15 37.1,-15 28.5,0 51,24.599996 53.8,50.399996 a 66,66 0 0 1 -2,29.2"
     fill="#161315"
     id="path5" />
  <path
     d="m 280.37996,149.47995 c 0,0 -1.9,-2.2 -4.9,-3.8 -3,-1.6 -3.1,-3.9 -3.4,-4.7 m 15.6,-3.6 c 0,0 -2.8,-0.6 -6.1,0 -3.3,0.7 -5,-1 -5.6,-1.5 m 9.3,-13.6 c 0,0 -2.5,1.5 -4.5,4.2 -2,2.7 -4.4,2.5 -5.2,2.6 m 0,-16.6 c 0,0 -1.1,2.6 -1.2,6 0,3.4 -2.1,4.5 -2.7,5.1 m -8.6,-12.7 c 0,0 0.4,2.8 2.2,5.7 1.8,2.9 0.7,5 0.5,5.8 m -15.2,-2.5 c 0,0 2.7,1.2 6,1.4 3.4,0.1 4.6,2.2 5.1,2.8 m -11,9.3 c 1,-0.6 2.3,-1.5 3.4,-2.7 2.4,-2.4 4.7,-1.9 5.5,-2 m -0.8,11.3 0.2,-2 c 0.2,-3.4 2.3,-4.5 3,-5 m 88.3,38.2 -0.3,-0.3 c -3,-3.3 -9,-8.9 -21.6,-12.5 -2,-0.6 -4.1,-1 -6.4,-1.5 -15,-2.9 -19,-2 -32.2,-8.3 m 65.5,-1.4 c 0,0 0.4,-6.5 -18.7,-10.7 -23.8,-5.3 -36.5,1.9 -43.7,-1.6 m 58.4,-25.6 c 0,0 -9.4,-8.5 -33.3,-0.6 -18.3,6 -20.3,10.8 -27.8,11.5 m 39.4,-44.299996 c 0,0 -11,-2.7 -28.5,12.1 -17.6,14.799996 -15.3,19.599996 -20.5,21.599996 m 17.7,-50.799996 c 0,0 -13.5,3.3 -20.3,22.6 -6.8,19.399996 -3.4,19.199996 -7.6,24.499996 m -7.3,-47.299996 c 0,0 -7.3,5.3 -4.4,25.3 2.8,19.999996 3.9,12.4 3.1,22.599996 m -26.4,-35.599996 c 0,0 -2.7,8.4 6.6,21 9.2,12.499996 11.4,12.799996 12.1,18.499996 m -37.2,-19.599996 c 0,0 2.2,11.499996 13.6,16.599996 11.3,5.1 16.4,8.3 17.5,10.8 m -40.5,-2 c 0,0 6.4,7 21.7,8.2 15.2,1.2 14.8,0.4 16.3,1.7 m -35.9,14.9 c 0,0 8.7,4.7 22.2,-1.3 12.2,-5.5 14.5,-5.2 15.5,-4.8 m -28.2,26 c 0,0 14.2,-0.4 20.1,-7.7 a 47.6,47.6 0 0 1 12,-12 m -14.9,35 c 0,0 10.3,-1 15.8,-10.9 5.6,-10 4.2,-18.1 6.2,-20.5 m 7.8,36.8 c 2,-1.5 6.5,-6.2 5.1,-15.4 -1.7,-11.6 -6.1,-17 -4.6,-21.3"
     fill="none"
     stroke="#161315"
     stroke-width="0.7"
     id="path6" />
  <path
     d="m 328.37996,158.37995 c 0,0 17.8,-57.8 -34.6,-79.699996 -39.8,-16.6 -64,16.6 -66,20 -2,3.399996 -18.3,23.999996 -2.3,53.399996"
     fill="none"
     stroke="#161315"
     stroke-width="0.7"
     id="path7" />
</svg>
